<svg xmlns="http://www.w3.org/2000/svg" width="282.232" height="176.611" viewBox="0 0 282.232 176.611">
  <g id="undraw_authentication_fsn5" transform="translate(-24.854 -30.275)">
    <path id="Path_10" data-name="Path 10" d="M992.032,689.681s-3.547-2.34-7.062-.675c0,0,1.082,2.084,5.532,1.887Z" transform="translate(-700.942 -497.764)" fill="#661fff"/>
    <path id="Path_11" data-name="Path 11" d="M1005.2,693.25s1.079,4.109-1.628,6.906c0,0-1.628-1.694,0-5.844Z" transform="translate(-713.665 -501.209)" fill="#661fff"/>
    <path id="Path_12" data-name="Path 12" d="M1006.175,673.243s-.263-3.495-8.155-2.335a3.765,3.765,0,0,0,2.733,3.322C1003.523,675.3,1004.793,674.4,1006.175,673.243Z" transform="translate(-710.226 -485.147)" fill="#661fff"/>
    <path id="Path_13" data-name="Path 13" d="M1022.3,679.5s3.336,1.071.361,8.473a3.775,3.775,0,0,1-2.6-3.437C1019.663,681.589,1020.835,680.574,1022.3,679.5Z" transform="translate(-725.85 -491.427)" fill="#661fff"/>
    <path id="Path_14" data-name="Path 14" d="M1024.642,649.488s.453-5.751-7.613-5.163c0,0-.577,5.195,6.19,6.545Z" transform="translate(-723.742 -466.373)" fill="#661fff"/>
    <path id="Path_15" data-name="Path 15" d="M1039.308,627.646s-1.105-6.519-9.168-4.577c0,0-.029,5.636,7.852,6.129Z" transform="translate(-733.077 -451.024)" fill="#661fff"/>
    <path id="Path_28" data-name="Path 28" d="M1040.977,662.125s5.72-.747,5.55,7.336c0,0-5.169.843-6.857-5.844Z" transform="translate(-739.857 -479.053)" fill="#661fff"/>
    <path id="Path_46" data-name="Path 46" d="M366.631,132.69H89.34a2.47,2.47,0,0,0-2.47,2.47v7.2H369.1v-7.2A2.47,2.47,0,0,0,366.631,132.69Z" transform="translate(-62.016 -102.415)" fill="#3f3d56"/>
    <path id="Path_47" data-name="Path 47" d="M86.87,166.19V328.153a4.981,4.981,0,0,0,4.981,4.981h272.27a4.981,4.981,0,0,0,4.981-4.981V166.19Z" transform="translate(-62.016 -126.248)" fill="#fff"/>
    <circle id="Ellipse_1" data-name="Ellipse 1" cx="1.154" cy="1.154" r="1.154" transform="translate(28.169 33.882)" fill="#fa5959" opacity="0.8"/>
    <circle id="Ellipse_2" data-name="Ellipse 2" cx="1.154" cy="1.154" r="1.154" transform="translate(31.344 33.882)" fill="#fed253" opacity="0.8"/>
    <circle id="Ellipse_3" data-name="Ellipse 3" cx="1.154" cy="1.154" r="1.154" transform="translate(34.518 33.882)" fill="#8ccf4d" opacity="0.8"/>
    <rect id="Rectangle_8" data-name="Rectangle 8" width="226.824" height="99.739" transform="translate(51.089 66.947)" opacity="0.05"/>
    <rect id="Rectangle_9" data-name="Rectangle 9" width="223.361" height="97.54" transform="translate(52.82 67.703)" fill="#3f3d56"/>
    <path id="Path_48" data-name="Path 48" d="M340,349.38A22.221,22.221,0,1,0,362.221,371.6,22.221,22.221,0,0,0,340,349.38Zm3.985,22.755v10.522h-7.855V372.135a6.507,6.507,0,1,1,7.855,0Z" transform="translate(-226.29 -256.573)" fill="#661fff"/>
    <path id="Path_49" data-name="Path 49" d="M340,349.38A22.221,22.221,0,1,0,362.221,371.6,22.221,22.221,0,0,0,340,349.38Zm3.985,22.755v10.522h-7.855V372.135a6.507,6.507,0,1,1,7.855,0Z" transform="translate(-226.29 -256.573)" opacity="0.05"/>
    <path id="Path_50" data-name="Path 50" d="M324.349,327.38a28.569,28.569,0,1,0,28.569,28.569,28.569,28.569,0,0,0-28.569-28.569Zm5.122,29.256v13.526h-10.1V356.636a8.369,8.369,0,1,1,10.1,0Z" transform="translate(-210.639 -240.922)" fill="#661fff"/>
    <rect id="Rectangle_10" data-name="Rectangle 10" width="92.346" height="9.812" transform="translate(154.112 111.279)" fill="#fff"/>
    <path id="Path_51" data-name="Path 51" d="M555.964,424.9h-1.671l1.486-1.483a.147.147,0,0,0,0-.2.144.144,0,0,0-.2,0l-1.486,1.486v-1.674a.144.144,0,0,0-.144-.144.147.147,0,0,0-.144.144V424.7l-1.483-1.495a.144.144,0,0,0-.2,0,.147.147,0,0,0,0,.2l1.486,1.483h-1.674a.147.147,0,0,0-.144.144.144.144,0,0,0,.144.144H553.6l-1.486,1.486a.147.147,0,0,0,0,.2.15.15,0,0,0,.2,0l1.483-1.486v1.671a.144.144,0,0,0,.289,0v-1.671l1.486,1.486a.15.15,0,0,0,.2,0,.147.147,0,0,0,0-.2l-1.486-1.486h1.671a.14.14,0,1,0,0-.28Z" transform="translate(-392.762 -308.862)" fill="#661fff"/>
    <path id="Path_52" data-name="Path 52" d="M576.964,424.9h-1.671l1.486-1.483a.147.147,0,0,0,0-.2.144.144,0,0,0-.2,0l-1.486,1.486v-1.674a.144.144,0,0,0-.144-.144.147.147,0,0,0-.144.144V424.7l-1.483-1.495a.144.144,0,0,0-.2,0,.147.147,0,0,0,0,.2l1.486,1.483h-1.674a.147.147,0,0,0-.144.144.144.144,0,0,0,.144.144H574.6l-1.486,1.486a.147.147,0,0,0,0,.2.15.15,0,0,0,.2,0l1.483-1.486v1.671a.144.144,0,0,0,.289,0v-1.671l1.486,1.486a.15.15,0,0,0,.2,0,.147.147,0,0,0,0-.2l-1.486-1.486h1.671a.14.14,0,1,0,0-.28Z" transform="translate(-407.702 -308.862)" fill="#661fff"/>
    <path id="Path_53" data-name="Path 53" d="M597.964,424.9h-1.671l1.486-1.483a.147.147,0,0,0,0-.2.144.144,0,0,0-.2,0l-1.486,1.486v-1.674a.144.144,0,0,0-.144-.144.147.147,0,0,0-.144.144V424.7l-1.483-1.495a.144.144,0,0,0-.2,0,.147.147,0,0,0,0,.2l1.486,1.483h-1.674a.147.147,0,0,0-.144.144.144.144,0,0,0,.144.144H595.6l-1.486,1.486a.147.147,0,0,0,0,.2.15.15,0,0,0,.2,0l1.483-1.486v1.671a.144.144,0,0,0,.289,0v-1.671l1.486,1.486a.15.15,0,0,0,.2,0,.147.147,0,0,0,0-.2l-1.486-1.486h1.671a.14.14,0,1,0,0-.28Z" transform="translate(-422.642 -308.862)" fill="#661fff"/>
    <path id="Path_54" data-name="Path 54" d="M618.964,424.9h-1.671l1.486-1.483a.147.147,0,0,0,0-.2.144.144,0,0,0-.2,0l-1.486,1.486v-1.674a.144.144,0,0,0-.144-.144.147.147,0,0,0-.144.144V424.7l-1.483-1.495a.144.144,0,0,0-.2,0,.147.147,0,0,0,0,.2l1.486,1.483h-1.674a.147.147,0,0,0-.144.144.144.144,0,0,0,.144.144H616.6l-1.486,1.486a.147.147,0,0,0,0,.2.15.15,0,0,0,.2,0l1.483-1.486v1.671a.144.144,0,1,0,.289,0v-1.671l1.486,1.486a.15.15,0,0,0,.2,0,.147.147,0,0,0,0-.2l-1.486-1.486h1.671a.14.14,0,1,0,0-.28Z" transform="translate(-437.582 -308.862)" fill="#661fff"/>
    <path id="Path_55" data-name="Path 55" d="M639.964,424.9h-1.671l1.486-1.483a.147.147,0,0,0,0-.2.144.144,0,0,0-.2,0l-1.486,1.486v-1.674a.144.144,0,0,0-.144-.144.147.147,0,0,0-.144.144V424.7l-1.483-1.495a.144.144,0,0,0-.2,0,.147.147,0,0,0,0,.2l1.486,1.483h-1.674a.147.147,0,0,0-.144.144.144.144,0,0,0,.144.144H637.6l-1.486,1.486a.147.147,0,0,0,0,.2.15.15,0,0,0,.2,0l1.483-1.486v1.671a.144.144,0,1,0,.289,0v-1.671l1.486,1.486a.15.15,0,0,0,.2,0,.147.147,0,0,0,0-.2l-1.486-1.486h1.671a.14.14,0,1,0,0-.28Z" transform="translate(-452.522 -308.862)" fill="#661fff"/>
    <path id="Path_56" data-name="Path 56" d="M660.964,424.9h-1.671l1.486-1.483a.147.147,0,0,0,0-.2.144.144,0,0,0-.2,0l-1.486,1.486v-1.674a.144.144,0,0,0-.144-.144.147.147,0,0,0-.144.144V424.7l-1.483-1.495a.144.144,0,0,0-.2,0,.147.147,0,0,0,0,.2l1.486,1.483h-1.674a.147.147,0,0,0-.144.144.144.144,0,0,0,.144.144H658.6l-1.486,1.486a.147.147,0,0,0,0,.2.15.15,0,0,0,.2,0l1.483-1.486v1.671a.144.144,0,0,0,.289,0v-1.671l1.486,1.486a.15.15,0,0,0,.2,0,.147.147,0,0,0,0-.2l-1.486-1.486h1.671a.14.14,0,1,0,0-.28Z" transform="translate(-467.461 -308.862)" fill="#661fff"/>
    <path id="Path_57" data-name="Path 57" d="M681.964,424.9h-1.671l1.486-1.483a.147.147,0,0,0,0-.2.144.144,0,0,0-.2,0l-1.486,1.486v-1.674a.144.144,0,0,0-.144-.144.147.147,0,0,0-.144.144V424.7l-1.483-1.495a.144.144,0,0,0-.2,0,.147.147,0,0,0,0,.2l1.486,1.483h-1.674a.147.147,0,0,0-.144.144.144.144,0,0,0,.144.144H679.6l-1.486,1.486a.147.147,0,0,0,0,.2.15.15,0,0,0,.2,0l1.483-1.486v1.671a.144.144,0,0,0,.289,0v-1.671l1.486,1.486a.15.15,0,0,0,.2,0,.147.147,0,0,0,0-.2l-1.486-1.486h1.671a.14.14,0,1,0,0-.28Z" transform="translate(-482.401 -308.862)" fill="#661fff"/>
    <path id="Path_58" data-name="Path 58" d="M702.964,424.9h-1.671l1.486-1.483a.147.147,0,0,0,0-.2.144.144,0,0,0-.2,0l-1.486,1.486v-1.674a.144.144,0,0,0-.144-.144.147.147,0,0,0-.144.144V424.7l-1.483-1.495a.144.144,0,0,0-.2,0,.147.147,0,0,0,0,.2l1.486,1.483h-1.674a.147.147,0,0,0-.144.144.144.144,0,0,0,.144.144H700.6l-1.486,1.486a.147.147,0,0,0,0,.2.15.15,0,0,0,.2,0l1.483-1.486v1.671a.144.144,0,0,0,.289,0v-1.671l1.486,1.486a.15.15,0,0,0,.2,0,.147.147,0,0,0,0-.2l-1.486-1.486h1.671a.14.14,0,1,0,0-.28Z" transform="translate(-497.341 -308.862)" fill="#661fff"/>
    <path id="Path_59" data-name="Path 59" d="M723.964,424.9h-1.671l1.486-1.483a.147.147,0,0,0,0-.2.144.144,0,0,0-.2,0l-1.486,1.486v-1.674a.144.144,0,0,0-.144-.144.147.147,0,0,0-.144.144V424.7l-1.483-1.495a.144.144,0,0,0-.2,0,.147.147,0,0,0,0,.2l1.486,1.483h-1.674a.147.147,0,0,0-.144.144.144.144,0,0,0,.144.144H721.6l-1.486,1.486a.147.147,0,0,0,0,.2.15.15,0,0,0,.2,0l1.483-1.486v1.671a.144.144,0,0,0,.289,0v-1.671l1.486,1.486a.15.15,0,0,0,.2,0,.147.147,0,0,0,0-.2l-1.486-1.486h1.671a.14.14,0,1,0,0-.28Z" transform="translate(-512.281 -308.862)" fill="#661fff"/>
    <path id="Path_60" data-name="Path 60" d="M744.964,424.9h-1.671l1.486-1.483a.147.147,0,0,0,0-.2.144.144,0,0,0-.2,0l-1.486,1.486v-1.674a.144.144,0,0,0-.144-.144.147.147,0,0,0-.144.144V424.7l-1.483-1.495a.144.144,0,0,0-.2,0,.147.147,0,0,0,0,.2l1.486,1.483h-1.674a.147.147,0,0,0-.144.144.144.144,0,0,0,.144.144H742.6l-1.486,1.486a.147.147,0,0,0,0,.2.15.15,0,0,0,.2,0l1.483-1.486v1.671a.144.144,0,1,0,.289,0v-1.671l1.486,1.486a.15.15,0,0,0,.2,0,.147.147,0,0,0,0-.2l-1.486-1.486h1.671a.14.14,0,1,0,0-.28Z" transform="translate(-527.221 -308.862)" fill="#661fff"/>
    <path id="Path_61" data-name="Path 61" d="M765.964,424.9h-1.671l1.486-1.483a.147.147,0,0,0,0-.2.144.144,0,0,0-.2,0l-1.486,1.486v-1.674a.144.144,0,0,0-.144-.144.147.147,0,0,0-.144.144V424.7l-1.483-1.495a.144.144,0,0,0-.2,0,.147.147,0,0,0,0,.2l1.486,1.483h-1.674a.147.147,0,0,0-.144.144.144.144,0,0,0,.144.144H763.6l-1.486,1.486a.147.147,0,0,0,0,.2.15.15,0,0,0,.2,0l1.483-1.486v1.671a.144.144,0,0,0,.289,0v-1.671l1.486,1.486a.15.15,0,0,0,.2,0,.147.147,0,0,0,0-.2l-1.486-1.486h1.671a.14.14,0,1,0,0-.28Z" transform="translate(-542.161 -308.862)" fill="#661fff"/>
  </g>
</svg>
