<svg xmlns="http://www.w3.org/2000/svg" width="685.582" height="470.084" viewBox="0 0 685.582 470.084">
  <g id="undraw_online_ad_re_ol62" transform="translate(13.415 0)">
    <path id="Path_765" data-name="Path 765" d="M849.98,272.138H608.942v-4.968h-109.3v4.968H257.616a16.306,16.306,0,0,0-16.306,16.306h0V618.5A16.306,16.306,0,0,0,257.616,634.8H849.98A16.306,16.306,0,0,0,866.286,618.5V288.442a16.305,16.305,0,0,0-16.3-16.3Z" transform="translate(-226.402 -201.513)" fill="#3f3d56"/>
    <rect id="Rectangle_125" data-name="Rectangle 125" width="581.254" height="327.887" transform="translate(34.827 99.439)" fill="#e6e6e6"/>
    <rect id="Rectangle_130" data-name="Rectangle 130" width="532.152" height="283.417" transform="translate(57.674 116.779)" fill="#fff"/>
    <circle id="Ellipse_120" data-name="Ellipse 120" cx="5.962" cy="5.962" r="5.962" transform="translate(309.836 78.574)" fill="#661fff"/>
    <path id="Path_766" data-name="Path 766" d="M880.633,650.723H823.907v-4.088a.811.811,0,0,0-.811-.811H803.647a.811.811,0,0,0-.811.811h0v4.088H790.681v-4.088a.811.811,0,0,0-.811-.811H770.421a.811.811,0,0,0-.811.811h0v4.088H757.455v-4.088a.811.811,0,0,0-.811-.811H737.2a.811.811,0,0,0-.811.811h0v4.088H724.23v-4.088a.811.811,0,0,0-.811-.811H703.971a.811.811,0,0,0-.811.811h0v4.088H691v-4.088a.811.811,0,0,0-.811-.811H670.745a.811.811,0,0,0-.811.811h0v4.088H657.778v-4.088a.811.811,0,0,0-.811-.811H637.523a.811.811,0,0,0-.811.811h0v4.088h-12.16v-4.088a.811.811,0,0,0-.811-.811H471.39a.811.811,0,0,0-.811.811h0v4.088H458.425v-4.088a.811.811,0,0,0-.811-.811H438.165a.811.811,0,0,0-.811.811h0v4.088H425.2v-4.088a.811.811,0,0,0-.811-.811H404.94a.811.811,0,0,0-.811.811h0v4.088H391.973v-4.088a.811.811,0,0,0-.811-.811H371.714a.811.811,0,0,0-.811.811h0v4.088H358.75v-4.088a.811.811,0,0,0-.811-.811H338.488a.811.811,0,0,0-.811.811h0v4.088H325.523v-4.088a.811.811,0,0,0-.811-.811H305.263a.811.811,0,0,0-.811.811h0v4.088H292.3v-4.088a.811.811,0,0,0-.811-.811H272.033a.811.811,0,0,0-.811.811h0v4.088H233.949A19.449,19.449,0,0,0,214.5,670.172v8.794a19.449,19.449,0,0,0,19.449,19.449H880.633a19.449,19.449,0,0,0,19.449-19.448v-8.794a19.449,19.449,0,0,0-19.449-19.449Z" transform="translate(-227.915 -229.358)" fill="#3f3d56"/>
    <rect id="Rectangle_126" data-name="Rectangle 126" width="235.321" height="247.366" transform="translate(200.492 136.657)" fill="#e6e6e6"/>
    <rect id="Rectangle_128" data-name="Rectangle 128" width="660.725" height="1.853" transform="translate(-0.987 468.232)" fill="#e6e6e6"/>
    <circle id="Ellipse_127" data-name="Ellipse 127" cx="31.275" cy="31.275" r="31.275" transform="translate(302.979 156.372)" fill="#a0616a"/>
    <path id="Path_803" data-name="Path 803" d="M531.686,598.038l20.2-127.145a48.206,48.206,0,0,1,61.127-38.709h0a48.06,48.06,0,0,1,33.872,55.087L625.759,600.818Z" transform="translate(-263.641 -213.505)" fill="#661fff"/>
    <path id="Path_804" data-name="Path 804" d="M617.087,631.153a12.8,12.8,0,0,0,2.224-19.508l20.878-40.43-23.512,2.509-16.221,38.009a12.878,12.878,0,0,0,16.631,19.421Z" transform="translate(-276.87 -223.872)" fill="#a0616a"/>
    <path id="Path_805" data-name="Path 805" d="M622.477,595.739a5.738,5.738,0,0,1-3.09-1.466l-7.988-7.381a5.749,5.749,0,0,1-1.39-6.435l15.965-37.841-2.265-74.77a18.459,18.459,0,0,1,36.58,4.99h0l3.873,47a59.05,59.05,0,0,1-11.381,39.979l-24.9,33.657a5.736,5.736,0,0,1-4.068,2.3,5.669,5.669,0,0,1-1.339-.031Z" transform="translate(-283.916 -215.096)" fill="#661fff"/>
    <path id="Path_806" data-name="Path 806" d="M414.941,366.028a12.8,12.8,0,0,0,17.1,9.655l29.091,34.989,6.856-22.63-28.676-29.757a12.878,12.878,0,0,0-24.366,7.743Z" transform="translate(-218.991 -203.445)" fill="#a0616a"/>
    <path id="Path_807" data-name="Path 807" d="M439.491,382.318a5.739,5.739,0,0,1,2.554-2.273l9.913-4.478a5.749,5.749,0,0,1,6.469,1.229l28.622,29.455,69.737,27.067a18.459,18.459,0,1,1-18.857,31.739h0L493.137,450.3a59.049,59.049,0,0,1-32.378-26.068l-21.286-36.049a5.736,5.736,0,0,1-.529-4.642,5.677,5.677,0,0,1,.55-1.219Z" transform="translate(-226.421 -209.447)" fill="#661fff"/>
    <path id="Path_808" data-name="Path 808" d="M634.774,502.685,633.5,543.431,610.044,584.2l19.586-45.424Z" transform="translate(-278.65 -218.832)" opacity="0.1" style="isolation: isolate"/>
    <path id="Path_696" data-name="Path 696" d="M585.4,366.39c3.226,3.818,8.685,4.895,13.721,5.336,10.227.9,25.1-.556,35.093-2.866.713,6.914-1.231,14.368,2.841,20.056a93.107,93.107,0,0,0,3.308-21.108c.123-3.057.075-6.23-1.169-9.04s-3.958-5.2-7.083-5.221a17.751,17.751,0,0,1,7.918-3.385l-9.895-4.972,2.541-2.609-17.914-1.1,5.188-3.3a112.512,112.512,0,0,0-23.57-.741c-3.65.269-7.467.783-10.425,2.9s-4.667,6.318-2.83,9.424a13.684,13.684,0,0,0-10.428,8.274c-1.318,3.343-1.2,7.056-.791,10.618a75.259,75.259,0,0,0,3.947,16.695" transform="translate(-271.767 -194.659)" fill="#2f2e41"/>
    <path id="Path_138" data-name="Path 138" d="M706.363,277.686,421.385,343.478a5.423,5.423,0,0,1-6.5-4.059l-16.32-70.691a5.423,5.423,0,0,1,4.059-6.5L687.606,196.44a5.423,5.423,0,0,1,6.5,4.059l16.32,70.691a5.423,5.423,0,0,1-4.059,6.5Z" transform="translate(-241.063 -196.301)" fill="#fff"/>
    <path id="Path_138-2" data-name="Path 138" d="M706.363,277.686,421.385,343.478a5.423,5.423,0,0,1-6.5-4.059l-16.32-70.691a5.423,5.423,0,0,1,4.059-6.5L687.606,196.44a5.423,5.423,0,0,1,6.5,4.059l16.32,70.691a5.423,5.423,0,0,1-4.059,6.5ZM403.116,264.344a3.254,3.254,0,0,0-2.436,3.9L417,338.933a3.253,3.253,0,0,0,3.9,2.436l284.978-65.792a3.253,3.253,0,0,0,2.436-3.9l-16.321-70.692a3.253,3.253,0,0,0-3.9-2.436Z" transform="translate(-241.063 -196.301)" fill="#e6e6e6"/>
    <path id="Path_139" data-name="Path 139" d="M509.994,266.406a3.677,3.677,0,0,0,1.642,7.169l.012,0,168.906-38.995a3.677,3.677,0,0,0-1.654-7.166Z" transform="translate(-264.634 -198.582)" fill="#e6e6e6"/>
    <path id="Path_140" data-name="Path 140" d="M515.351,291.374a3.677,3.677,0,1,0,1.642,7.169l.012,0,72.68-16.78a3.677,3.677,0,0,0-1.642-7.169l-.012,0Z" transform="translate(-249.54 -202.052)" fill="#e6e6e6"/>
    <g id="Group_45" data-name="Group 45" transform="translate(222.36 71.346)">
      <circle id="Ellipse_18" data-name="Ellipse 18" cx="22.063" cy="22.063" r="22.063" fill="#661fff"/>
      <path id="Path_395" data-name="Path 395" d="M458.671,308.667a3.418,3.418,0,0,1-2.157-.2l-.042-.019-8.877-4.03a3.443,3.443,0,1,1,2.851-6.268l5.752,2.619,8.07-17.732a3.44,3.44,0,0,1,4.555-1.706h0l-.048.116.051-.116a3.444,3.444,0,0,1,1.705,4.556l-9.491,20.86a3.442,3.442,0,0,1-2.365,1.923Z" transform="translate(-437.229 -273.877)" fill="#fff"/>
    </g>
  </g>
</svg>
