<svg xmlns="http://www.w3.org/2000/svg" width="317.608" height="235.821" viewBox="0 0 317.608 235.821">
  <g id="Group_33" data-name="Group 33" transform="translate(-227 -187)">
    <path id="Path_498" data-name="Path 498" d="M826.3,513.34a4.214,4.214,0,0,0-1.393-6.309l.833-9.593-5.707-1.928-.986,13.564a4.237,4.237,0,0,0,7.252,4.267Z" transform="translate(-325.436 -169.874)" fill="#ffb8b8"/>
    <path id="Path_499" data-name="Path 499" d="M663.514,489.879h-5.135l-2.443-19.817h7.582Z" transform="translate(-134.175 -71.828)" fill="#ffb8b8"/>
    <path id="Path_500" data-name="Path 500" d="M645.563,510.894h9.908v6.238H639.325A6.238,6.238,0,0,1,645.563,510.894Z" transform="translate(-125.029 -94.311)" fill="#2f2e41"/>
    <path id="Path_501" data-name="Path 501" d="M632.04,461.321l-4.988,1.226-7.1-18.659,7.363-1.81Z" transform="translate(-114.36 -56.42)" fill="#ffb8b8"/>
    <path id="Path_502" data-name="Path 502" d="M6.238,0h9.908V6.238H0A6.238,6.238,0,0,1,6.238,0Z" transform="translate(502.791 406.891) rotate(-13.828)" fill="#2f2e41"/>
    <path id="Path_503" data-name="Path 503" d="M854.612,598.686a1.892,1.892,0,0,1-1.887-1.7l-5.91-55.071-5.144,16.841,7.286,26.3a1.9,1.9,0,0,1-1.126,2.272l-5.792,2.317a1.9,1.9,0,0,1-2.5-1.14l-8.929-25.618a23.191,23.191,0,0,1-1.274-8.716l1.246-27.647,32.824,1.39-.512,68.4a1.911,1.911,0,0,1-1.758,1.881l-6.374.48Q854.686,598.686,854.612,598.686Z" transform="translate(-331.284 -186.954)" fill="#2f2e41"/>
    <circle id="Ellipse_83" data-name="Ellipse 83" cx="11.037" cy="11.037" r="11.037" transform="translate(506.855 256.317)" fill="#ffb8b8"/>
    <path id="Path_504" data-name="Path 504" d="M856.36,458.875c-2.907,0-6.516-.238-10.253-.484a129.474,129.474,0,0,0-14.324-.455,3.13,3.13,0,0,1-2.8-1.22c-4.062-5.2,2.2-25.483,2.472-26.344l5.1-22.679.219.049-.219-.049a12.188,12.188,0,0,1,9.353-9.6,10.931,10.931,0,0,1,11.256,4.662q.215.3.429.62c8.786,13.013,3.817,45.342,3.484,47.427.464.556,2.974,3.7,2.284,5.883a2.846,2.846,0,0,1-2.266,1.8,21.118,21.118,0,0,1-4.733.393Z" transform="translate(-330.351 -116.11)" fill="#661fff"/>
    <path id="Path_505" data-name="Path 505" d="M830.14,459.8a11.791,11.791,0,0,1-4.167-1.123c-.781-.325-3.16-1.314-.272-26.545,1.418-12.394,3.45-24.7,3.47-24.824l.019-.119.11-.049c.052-.024,5.241-2.4,6.143-5.458a3.018,3.018,0,0,1,.105-.308,2.806,2.806,0,0,1,3.484-1.711,2.948,2.948,0,0,1,2.221,3.365,20.68,20.68,0,0,1-1.794,5.748c-2.441,5.037-4.1,18.392-4.112,18.526-.094,1.14-2.309,28.163-2.736,30.214a2.746,2.746,0,0,1-1.228,2.018,2.626,2.626,0,0,1-1.243.27Z" transform="translate(-328.53 -117.023)" fill="#2f2e41"/>
    <path id="Path_506" data-name="Path 506" d="M862.18,459.507a.907.907,0,0,1-.557-.191c-3.247-2.467,2.008-32.378,5.123-42.7.624-2.067,1.18-3.836,1.652-5.26h0a40.1,40.1,0,0,0,1.793-7.867c.172-1.45.544-2.277,1.14-2.531a1.449,1.449,0,0,1,1.447.356c2.879-.142,5.676,1.034,8.268,2.328l2.333,1.164L886,451.161c-.074,2.958-5.905,5.047-8.448,5.18-4.084.214-11.419.88-14.65,2.925a1.351,1.351,0,0,1-.719.241Z" transform="translate(-348.514 -117.769)" fill="#2f2e41"/>
    <path id="Path_507" data-name="Path 507" d="M822.85,458.314c-.039,0-.077,0-.116,0l-5.288-.325a1.9,1.9,0,0,1-1.763-2.181l2.393-15.853,4.5-22.244a3.99,3.99,0,0,1,5.106-3.015h0a4.012,4.012,0,0,1,2.745,4.439l-3.579,22.289-2.119,15.255a1.91,1.91,0,0,1-1.883,1.639Z" transform="translate(-323.768 -125.272)" fill="#2f2e41"/>
    <path id="Path_508" data-name="Path 508" d="M871.074,467.09a4.214,4.214,0,0,1,6.392-.941l8.671-4.188,3.83,4.648-12.328,5.743a4.237,4.237,0,0,1-6.566-5.262Z" transform="translate(-353.926 -151.401)" fill="#ffb8b8"/>
    <path id="Path_509" data-name="Path 509" d="M894.791,442.155a1.9,1.9,0,0,1-1.849-1.456l-1.258-5.235a1.892,1.892,0,0,1,.872-2.076l7.594-4.546-3.883-14.215a4.832,4.832,0,0,1,9.254-2.778l4.286,13.088a7.9,7.9,0,0,1-2.885,8.885L895.9,441.794A1.9,1.9,0,0,1,894.791,442.155Z" transform="translate(-365.598 -121.968)" fill="#2f2e41"/>
    <path id="Path_511" data-name="Path 511" d="M446.327,187H233.686a7.5,7.5,0,0,0-7.5,7.5v22.882a7.5,7.5,0,0,0,7.5,7.5H446.327a7.5,7.5,0,0,0,7.5-7.5V194.5a7.5,7.5,0,0,0-7.5-7.5Zm6.707,30.378a6.716,6.716,0,0,1-6.707,6.706H233.686a6.716,6.716,0,0,1-6.706-6.706V194.5a6.716,6.716,0,0,1,6.706-6.706H446.327a6.716,6.716,0,0,1,6.707,6.706Z" transform="translate(0.81)" fill="#661fff"/>
    <path id="Path_512" data-name="Path 512" d="M446.327,345.147H233.686a7.5,7.5,0,0,1-7.5-7.5V314.77a7.5,7.5,0,0,1,7.5-7.5H446.327a7.5,7.5,0,0,1,7.5,7.5v22.882a7.5,7.5,0,0,1-7.5,7.5ZM233.686,308.063a6.714,6.714,0,0,0-6.706,6.706v22.882a6.714,6.714,0,0,0,6.706,6.708H446.327a6.714,6.714,0,0,0,6.707-6.706V314.77a6.714,6.714,0,0,0-6.706-6.706Z" transform="translate(0.81 -66.226)" fill="#661fff"/>
    <path id="Path_513" data-name="Path 513" d="M446.327,465.421H233.686a7.5,7.5,0,0,1-7.5-7.5V435.044a7.5,7.5,0,0,1,7.5-7.5H446.327a7.5,7.5,0,0,1,7.5,7.5v22.882a7.5,7.5,0,0,1-7.5,7.5ZM233.686,428.335a6.714,6.714,0,0,0-6.706,6.706v22.882a6.714,6.714,0,0,0,6.706,6.707H446.327a6.714,6.714,0,0,0,6.707-6.706v-22.88a6.714,6.714,0,0,0-6.707-6.708Z" transform="translate(0.81 -132.452)" fill="#661fff"/>
    <path id="Path_514" data-name="Path 514" d="M290.823,226.2a13.046,13.046,0,1,1,13.046-13.046A13.046,13.046,0,0,1,290.823,226.2Z" transform="translate(-27.595 -7.218)" fill="#661fff"/>
    <path id="Path_515" data-name="Path 515" d="M498.694,245.108H359.433a3.156,3.156,0,0,1,0-6.312H498.694a3.156,3.156,0,1,1,0,6.312Z" transform="translate(-70.819 -28.52)" fill="#661fff"/>
    <path id="Path_516" data-name="Path 516" d="M453.319,215.259H359.426a3.156,3.156,0,0,1,0-6.312h93.893a3.156,3.156,0,0,1,0,6.312Z" transform="translate(-70.815 -12.085)" fill="#661fff"/>
    <path id="Path_517" data-name="Path 517" d="M290.823,346.473a13.046,13.046,0,1,1,13.046-13.046A13.046,13.046,0,0,1,290.823,346.473Z" transform="translate(-27.595 -73.443)" fill="#661fff"/>
    <path id="Path_518" data-name="Path 518" d="M498.694,365.382H359.433a3.156,3.156,0,0,1,0-6.312H498.694a3.156,3.156,0,1,1,0,6.312Z" transform="translate(-70.819 -94.746)" fill="#661fff"/>
    <path id="Path_519" data-name="Path 519" d="M453.319,335.533H359.426a3.156,3.156,0,0,1,0-6.312h93.893a3.156,3.156,0,0,1,0,6.312Z" transform="translate(-70.815 -78.311)" fill="#661fff"/>
    <path id="Path_520" data-name="Path 520" d="M290.823,466.747A13.046,13.046,0,1,1,303.869,453.7,13.046,13.046,0,0,1,290.823,466.747Z" transform="translate(-27.595 -139.669)" fill="#661fff"/>
    <path id="Path_521" data-name="Path 521" d="M498.694,485.656H359.433a3.156,3.156,0,0,1,0-6.312H498.694a3.156,3.156,0,0,1,0,6.312Z" transform="translate(-70.819 -160.972)" fill="#661fff"/>
    <path id="Path_522" data-name="Path 522" d="M453.319,455.807H359.426a3.156,3.156,0,0,1,0-6.312h93.893a3.156,3.156,0,0,1,0,6.312Z" transform="translate(-70.815 -144.536)" fill="#661fff"/>
    <path id="Path_395" data-name="Path 395" d="M299.341,225.943a1.493,1.493,0,0,1-.9-.3l-.016-.012-3.382-2.587a1.5,1.5,0,0,1,1.828-2.385l2.19,1.68,5.175-6.752a1.5,1.5,0,0,1,2.106-.278h0l-.032.045.033-.045a1.5,1.5,0,0,1,.278,2.106l-6.088,7.939a1.5,1.5,0,0,1-1.2.584Z" transform="translate(-36.779 -15.418)" fill="#fff"/>
    <path id="Path_561" data-name="Path 561" d="M17.585,13.106S13.34,6.871,10.91,8.924,1.668,15,.232,11.816,4.314,2.79,8.477,1.394,19.951-1.857,22.244,4.3A26.918,26.918,0,0,1,23.59,16.487Z" transform="matrix(0.914, 0.407, -0.407, 0.914, 511.211, 251.16)" fill="#2f2e41"/>
  </g>
</svg>
