<svg xmlns="http://www.w3.org/2000/svg" width="255.846" height="228.841" viewBox="0 0 255.846 228.841">
  <g id="undraw_noted_pc9f" transform="translate(0 -0.01)">
    <path id="Path_82" data-name="Path 82" d="M876.838,211.86c9.142,13.339,7.119,30.618,7.119,30.618s-16.846-4.347-25.988-17.686-7.119-30.618-7.119-30.618S867.7,198.521,876.838,211.86Z" transform="translate(-637.315 -167.277)" fill="#2f2e41"/>
    <path id="Path_83" data-name="Path 83" d="M907.8,195.68c1.07,16.136,13.35,28.46,13.35,28.46s10.545-13.837,9.476-29.973-13.35-28.46-13.35-28.46S906.729,179.544,907.8,195.68Z" transform="translate(-674.854 -148.549)" fill="#661fff"/>
    <path id="Path_84" data-name="Path 84" d="M579.949,115.922l124.124,62.4a5.87,5.87,0,0,1,3.22,5.639L700.08,290.787a2.908,2.908,0,0,1-4.214,2.4L568.913,228.4l6.518-109.87a3.121,3.121,0,0,1,4.518-2.6Z" transform="translate(-451.969 -115.58)" fill="#d0cde1"/>
    <path id="Path_85" data-name="Path 85" d="M584.645,122.3,705.72,183.172a5.725,5.725,0,0,1,3.141,5.5l-7.035,104.2a2.837,2.837,0,0,1-4.11,2.341l-123.836-63.2,6.358-107.171a3.045,3.045,0,0,1,4.407-2.54Z" transform="translate(-455.236 -119.781)" fill="#3f3d56"/>
    <path id="Path_86" data-name="Path 86" d="M602.089,145.989,711.84,201.167a5.19,5.19,0,0,1,2.847,4.986l-6.377,94.452a2.571,2.571,0,0,1-3.726,2.122L592.331,245.439l5.763-97.147a2.76,2.76,0,0,1,4-2.3Z" transform="translate(-467.374 -135.384)" fill="#fff"/>
    <path id="Path_87" data-name="Path 87" d="M286.215,496.075,410.5,558.666a8.275,8.275,0,0,0,7.454-.01l91.941-46.672a3.859,3.859,0,0,0,.583-3.875,8.627,8.627,0,0,0-.68-1.675l-12.529-6.59L391.927,447.286l-6.294-3.341a11.653,11.653,0,0,0-10.824-.044l-88.634,46.041a3.441,3.441,0,0,0,.039,6.133Z" transform="translate(-264.747 -330.697)" fill="#d0cde1"/>
    <path id="Path_88" data-name="Path 88" d="M286.212,591.936l124.282,62.59a8.275,8.275,0,0,0,7.454-.01l91.941-46.672a3.858,3.858,0,0,0,.583-3.875l-91.666,47.646a8,8,0,0,1-7.253.062l-127.2-63.369A3.428,3.428,0,0,0,286.212,591.936Z" transform="translate(-264.743 -426.557)" opacity="0.1"/>
    <path id="Path_89" data-name="Path 89" d="M500.633,613.446l-40.249-20.339a5.656,5.656,0,0,0-5.216.059L431.82,605.64a1.67,1.67,0,0,0,.035,2.964L472.893,629.3a4.649,4.649,0,0,0,4.375-.1l23.442-13.207a1.438,1.438,0,0,0-.076-2.546Z" transform="translate(-361.201 -429.314)" opacity="0.1"/>
    <path id="Path_90" data-name="Path 90" d="M584.7,520.775l-43.312,23.009a3.523,3.523,0,0,1-3.243.033L415.767,481.932a2.081,2.081,0,0,1,.016-3.722l42.295-20.934a4.586,4.586,0,0,1,4.1.015l122.5,61.721a.993.993,0,0,1,.019,1.763Z" transform="translate(-350.471 -340.045)" opacity="0.1"/>
    <rect id="Rectangle_12" data-name="Rectangle 12" width="0.486" height="44.52" transform="matrix(0.447, -0.894, 0.894, 0.447, 164.91, 66.414)" fill="#661fff"/>
    <rect id="Rectangle_13" data-name="Rectangle 13" width="0.485" height="44.739" transform="translate(164.902 72.252) rotate(-62.909)" fill="#661fff"/>
    <rect id="Rectangle_14" data-name="Rectangle 14" width="0.486" height="25.627" transform="matrix(0.455, -0.89, 0.89, 0.455, 172.196, 83.407)" fill="#661fff"/>
    <path id="Path_91" data-name="Path 91" d="M337.7,425.643s-9.71-4.231-14.271.238S335.644,428.88,337.7,425.643Z" transform="translate(-289.965 -318.356)" fill="#3f3d56"/>
    <path id="Path_92" data-name="Path 92" d="M314.027,359.342c3.263-5.514,9.719-5.771,9.719-5.771s6.291-.8,10.327,7.593c3.762,7.827,8.953,15.385.836,17.217l-1.466-4.563-.908,4.9a31.752,31.752,0,0,1-3.473.059c-8.693-.281-16.972.082-16.705-3.037C312.711,371.6,310.887,364.648,314.027,359.342Z" transform="translate(-283.055 -272.122)" fill="#2f2e41"/>
    <path id="Path_93" data-name="Path 93" d="M290.719,662.62s4.12,7.651,6.768,7.651,2.354,5,1.766,6.179a6.99,6.99,0,0,0,.294,7.651,4.694,4.694,0,0,1,.136,4.259,3.726,3.726,0,0,1-7.205-1.47q0-.07.008-.14c.294-4.708-2.06-12.065-4.414-13.83s-4.414-6.474-4.414-6.474Z" transform="translate(-264.313 -475.443)" fill="#ffb8b8"/>
    <path id="Path_94" data-name="Path 94" d="M368.773,657.46s-4.12,7.651-6.768,7.651-2.354,5-1.766,6.179a6.99,6.99,0,0,1-.294,7.651,4.694,4.694,0,0,0-.136,4.259,3.725,3.725,0,0,0,7.205-1.47q0-.07-.008-.14c-.294-4.708,2.06-12.064,4.414-13.83s4.414-6.474,4.414-6.474Z" transform="translate(-314.119 -472.049)" fill="#ffb8b8"/>
    <path id="Path_95" data-name="Path 95" d="M278.539,541.155l1.766,3.825s25.894,8.533,23.54,18.538-13.83,25.6-15.6,25.012-11.182-2.354-11.476-7.356,6.768-13.83,6.768-13.83l-9.71-8.828-14.13-.294-12.058,9.122s12.653,11.182,7.062,15.6-13.83,7.356-15.007,5.591-14.418-27.954-12.359-30.308S250.29,547.04,250.29,547.04l5.591-7.945,21.775-1.177Z" transform="translate(-227.121 -393.408)" fill="#2f2e41"/>
    <path id="Path_96" data-name="Path 96" d="M337.59,401.2s-1.471,9.71,1.471,10.887-5.885,6.179-5.885,6.179h-5l-3.237-6.768s2.943-5.3,1.177-10.3S337.59,401.2,337.59,401.2Z" transform="translate(-291.47 -302.007)" fill="#ffb8b8"/>
    <path id="Path_97" data-name="Path 97" d="M337.59,401.2s-1.471,9.71,1.471,10.887-5.885,6.179-5.885,6.179h-5l-3.237-6.768s2.943-5.3,1.177-10.3S337.59,401.2,337.59,401.2Z" transform="translate(-291.47 -302.007)" opacity="0.1"/>
    <path id="Path_98" data-name="Path 98" d="M331.73,429.557s-3.237,3.531-3.825,4.12-3.237,3.825-8.828-.883-6.179.883-6.179.883v35.31s4.708-2.06,8.533,0,11.77-.588,11.77-.588l1.471-36.488Z" transform="translate(-283.549 -322.123)" fill="#d0cde1"/>
    <path id="Path_99" data-name="Path 99" d="M354.355,428.551a6.773,6.773,0,0,1,5.1,0c2.354,1.177,10.593,7.062,10,9.71s-8.239,21.186-2.943,30.014,6.179,11.182,6.179,11.182l-12.947-6.768s-10-6.179-9.122-10S354.355,428.551,354.355,428.551Z" transform="translate(-308.336 -321.117)" fill="#3f3d56"/>
    <path id="Path_100" data-name="Path 100" d="M293.314,429.557s-6.176.589-6.47,1.177-9.269,3.09-8.681,5.738,8.681,26.336,5.149,30.75-9.416,10.593-7.356,11.182,5.591-.883,9.122,0,11.77-6.474,10.887-14.418S295.959,431.616,293.314,429.557Z" transform="translate(-258.967 -322.123)" fill="#3f3d56"/>
    <path id="Path_101" data-name="Path 101" d="M359.154,590.99v2.942s1.471,6.768-3.237,6.474-1.766-8.239-1.766-8.239l.294-2.648Z" transform="translate(-310.091 -427.354)" fill="#ffb8b8"/>
    <path id="Path_102" data-name="Path 102" d="M321.068,594.679s3.237,6.768,0,7.356-5.591-3.825-5.591-5S321.068,594.679,321.068,594.679Z" transform="translate(-285.246 -430.748)" fill="#ffb8b8"/>
    <ellipse id="Ellipse_6" data-name="Ellipse 6" cx="0.589" cy="1.177" rx="0.589" ry="1.177" transform="translate(30.967 94.045)" fill="#ffb8b8"/>
    <ellipse id="Ellipse_7" data-name="Ellipse 7" cx="0.589" cy="1.177" rx="0.589" ry="1.177" transform="translate(48.328 94.045)" fill="#ffb8b8"/>
    <path id="Path_103" data-name="Path 103" d="M290.7,440.737s-7.356,0-7.062,2.943,10,53.554,10,53.554,4.12-3.825,7.651-2.943Z" transform="translate(-264.297 -329.478)" fill="#3f3d56"/>
    <path id="Path_104" data-name="Path 104" d="M365.088,443.317s7.356,1.471,7.356,5.885-10.593,46.786-12.064,46.786-7.062-.883-7.062-2.354S365.088,443.317,365.088,443.317Z" transform="translate(-310.14 -331.175)" fill="#3f3d56"/>
    <path id="Path_105" data-name="Path 105" d="M370.259,468.687l-6.621,25.892S366.728,471.924,370.259,468.687Z" transform="translate(-316.929 -347.865)" opacity="0.2"/>
    <path id="Path_106" data-name="Path 106" d="M307.723,458.054l6.7,33.852S312.279,460.007,307.723,458.054Z" transform="translate(-280.145 -340.87)" opacity="0.2"/>
    <circle id="Ellipse_8" data-name="Ellipse 8" cx="8.533" cy="8.533" r="8.533" transform="translate(31.702 86.836)" fill="#ffb8b8"/>
    <path id="Path_107" data-name="Path 107" d="M94.154,246.921l6.378-3.341,8.808,1.367L111.163,253l-4.536-.174-1.267-2.957v2.908l-2.093-.08-1.215-4.708L101.291,253l-7.441-.152Z" transform="translate(-61.739 -160.232)" fill="#2f2e41"/>
    <path id="Path_108" data-name="Path 108" d="M367.517,98.321,364,106.686l29.688,15.583L403.69,93" transform="translate(-239.457 -61.173)" fill="#f2f2f2"/>
    <path id="Path_109" data-name="Path 109" d="M391.688,75.693,404.8,44.833,374.66,30,362,60.109Z" transform="translate(-238.141 -19.729)" fill="#661fff"/>
    <rect id="Rectangle_15" data-name="Rectangle 15" width="0.486" height="25.627" transform="matrix(0.455, -0.89, 0.89, 0.455, 135.585, 22.504)" fill="#fff"/>
    <rect id="Rectangle_16" data-name="Rectangle 16" width="0.486" height="25.627" transform="matrix(0.455, -0.89, 0.89, 0.455, 133.875, 26.61)" fill="#fff"/>
  </g>
</svg>
